<svg width="40" height="39" viewBox="0 0 40 39" fill="none" xmlns="http://www.w3.org/2000/svg">
<g filter="url(#filter0_d_8_622)">
<rect x="1.5" width="37" height="37" rx="18.5" fill="#ECFDF3"/>
<path d="M19.9998 10.6666C16.7748 10.6666 14.1665 13.275 14.1665 16.5C14.1665 18.4833 15.1582 20.225 16.6665 21.2833V23.1666C16.6665 23.625 17.0415 24 17.4998 24H22.4998C22.9582 24 23.3332 23.625 23.3332 23.1666V21.2833C24.8415 20.225 25.8332 18.4833 25.8332 16.5C25.8332 13.275 23.2248 10.6666 19.9998 10.6666ZM21.6665 20.3166V22.3333H20.8332V18.5083L22.2582 17.0916C22.5832 16.7666 22.5832 16.2333 22.2582 15.9083C21.9332 15.5833 21.3998 15.5833 21.0748 15.9083L19.9998 16.9916L18.9248 15.9083C18.5998 15.5833 18.0665 15.5833 17.7415 15.9083C17.4165 16.2333 17.4165 16.7666 17.7415 17.0916L19.1665 18.5083V22.3333H18.3332V20.3166C16.8582 19.675 15.8332 18.2083 15.8332 16.5C15.8332 14.2 17.6998 12.3333 19.9998 12.3333C22.2998 12.3333 24.1665 14.2 24.1665 16.5C24.1665 18.2083 23.1415 19.675 21.6665 20.3166ZM17.4998 25.6666H22.4998V26.5C22.4998 26.9583 22.1248 27.3333 21.6665 27.3333H18.3332C17.8748 27.3333 17.4998 26.9583 17.4998 26.5V25.6666Z" fill="#054F31"/>
</g>
<defs>
<filter id="filter0_d_8_622" x="0.5" y="0" width="39" height="39" filterUnits="userSpaceOnUse" color-interpolation-filters="sRGB">
<feFlood flood-opacity="0" result="BackgroundImageFix"/>
<feColorMatrix in="SourceAlpha" type="matrix" values="0 0 0 0 0 0 0 0 0 0 0 0 0 0 0 0 0 0 127 0" result="hardAlpha"/>
<feOffset dy="1"/>
<feGaussianBlur stdDeviation="0.5"/>
<feComposite in2="hardAlpha" operator="out"/>
<feColorMatrix type="matrix" values="0 0 0 0 0 0 0 0 0 0 0 0 0 0 0 0 0 0 0.1 0"/>
<feBlend mode="normal" in2="BackgroundImageFix" result="effect1_dropShadow_8_622"/>
<feBlend mode="normal" in="SourceGraphic" in2="effect1_dropShadow_8_622" result="shape"/>
</filter>
</defs>
</svg>
