<svg width="40" height="39" viewBox="0 0 40 39" fill="none" xmlns="http://www.w3.org/2000/svg">
<g filter="url(#filter0_d_8_614)">
<rect x="1.5" width="37" height="37" rx="18.5" fill="#FDF2FA"/>
<path d="M24.9998 18.1666H22.3498C21.9998 17.2 21.0832 16.5 19.9998 16.5C18.9165 16.5 17.9998 17.2 17.6498 18.1666H14.9998C14.7248 18.1666 13.3332 18.0833 13.3332 16.5V15.6666C13.3332 14.1416 14.6165 14 14.9998 14H23.4832C23.8332 14.9666 24.7498 15.6666 25.8332 15.6666C26.4962 15.6666 27.1321 15.4032 27.6009 14.9344C28.0698 14.4656 28.3332 13.8297 28.3332 13.1666C28.3332 12.5036 28.0698 11.8677 27.6009 11.3989C27.1321 10.93 26.4962 10.6666 25.8332 10.6666C24.7498 10.6666 23.8332 11.3666 23.4832 12.3333H14.9998C13.6582 12.3333 11.6665 13.2166 11.6665 15.6666V16.5C11.6665 18.95 13.6582 19.8333 14.9998 19.8333H17.6498C17.9998 20.8 18.9165 21.5 19.9998 21.5C21.0832 21.5 21.9998 20.8 22.3498 19.8333H24.9998C25.2748 19.8333 26.6665 19.9166 26.6665 21.5V22.3333C26.6665 23.8583 25.3832 24 24.9998 24H16.5165C16.1665 23.0333 15.2498 22.3333 14.1665 22.3333C13.5035 22.3333 12.8676 22.5967 12.3987 23.0655C11.9299 23.5344 11.6665 24.1703 11.6665 24.8333C11.6665 25.4963 11.9299 26.1322 12.3987 26.6011C12.8676 27.0699 13.5035 27.3333 14.1665 27.3333C15.2498 27.3333 16.1665 26.6333 16.5165 25.6666H24.9998C26.3415 25.6666 28.3332 24.775 28.3332 22.3333V21.5C28.3332 19.0583 26.3415 18.1666 24.9998 18.1666ZM25.8332 12.3333C26.0542 12.3333 26.2661 12.4211 26.4224 12.5774C26.5787 12.7337 26.6665 12.9456 26.6665 13.1666C26.6665 13.3876 26.5787 13.5996 26.4224 13.7559C26.2661 13.9122 26.0542 14 25.8332 14C25.6122 14 25.4002 13.9122 25.2439 13.7559C25.0876 13.5996 24.9998 13.3876 24.9998 13.1666C24.9998 12.9456 25.0876 12.7337 25.2439 12.5774C25.4002 12.4211 25.6122 12.3333 25.8332 12.3333ZM14.1665 25.6666C13.9455 25.6666 13.7335 25.5788 13.5772 25.4225C13.421 25.2663 13.3332 25.0543 13.3332 24.8333C13.3332 24.6123 13.421 24.4003 13.5772 24.244C13.7335 24.0878 13.9455 24 14.1665 24C14.3875 24 14.5995 24.0878 14.7558 24.244C14.912 24.4003 14.9998 24.6123 14.9998 24.8333C14.9998 25.0543 14.912 25.2663 14.7558 25.4225C14.5995 25.5788 14.3875 25.6666 14.1665 25.6666Z" fill="#851651"/>
</g>
<defs>
<filter id="filter0_d_8_614" x="0.5" y="0" width="39" height="39" filterUnits="userSpaceOnUse" color-interpolation-filters="sRGB">
<feFlood flood-opacity="0" result="BackgroundImageFix"/>
<feColorMatrix in="SourceAlpha" type="matrix" values="0 0 0 0 0 0 0 0 0 0 0 0 0 0 0 0 0 0 127 0" result="hardAlpha"/>
<feOffset dy="1"/>
<feGaussianBlur stdDeviation="0.5"/>
<feComposite in2="hardAlpha" operator="out"/>
<feColorMatrix type="matrix" values="0 0 0 0 0 0 0 0 0 0 0 0 0 0 0 0 0 0 0.1 0"/>
<feBlend mode="normal" in2="BackgroundImageFix" result="effect1_dropShadow_8_614"/>
<feBlend mode="normal" in="SourceGraphic" in2="effect1_dropShadow_8_614" result="shape"/>
</filter>
</defs>
</svg>
