<svg width="57" height="57" viewBox="0 0 57 57" fill="none" xmlns="http://www.w3.org/2000/svg">
<rect width="57" height="57" rx="28.5" fill="#FFFAEB"/>
<path d="M21 19C21 18.7348 20.8946 18.4804 20.7071 18.2929C20.5196 18.1054 20.2652 18 20 18C19.7348 18 19.4804 18.1054 19.2929 18.2929C19.1054 18.4804 19 18.7348 19 19V23H17V29H23V23H21V19ZM25 33C25 34.3 25.84 35.4 27 35.82V40H29V35.82C30.16 35.41 31 34.31 31 33V31H25V33ZM17 33C17 34.3 17.84 35.4 19 35.82V40H21V35.82C22.16 35.4 23 34.3 23 33V31H17V33ZM37 23V19C37 18.7348 36.8946 18.4804 36.7071 18.2929C36.5196 18.1054 36.2652 18 36 18C35.7348 18 35.4804 18.1054 35.2929 18.2929C35.1054 18.4804 35 18.7348 35 19V23H33V29H39V23H37ZM29 19C29 18.7348 28.8946 18.4804 28.7071 18.2929C28.5196 18.1054 28.2652 18 28 18C27.7348 18 27.4804 18.1054 27.2929 18.2929C27.1054 18.4804 27 18.7348 27 19V23H25V29H31V23H29V19ZM33 33C33 34.3 33.84 35.4 35 35.82V40H37V35.82C38.16 35.41 39 34.31 39 33V31H33V33Z" fill="#7A2E0E"/>
</svg>
