<svg width="48" height="48" viewBox="0 0 48 48" fill="none" xmlns="http://www.w3.org/2000/svg">
<path d="M13.24 21.58C16.12 27.24 20.76 31.88 26.42 34.76L30.82 30.36C31.38 29.8 32.16 29.64 32.86 29.86C35.1 30.6 37.5 31 40 31C40.5304 31 41.0391 31.2107 41.4142 31.5858C41.7893 31.9609 42 32.4696 42 33V40C42 40.5304 41.7893 41.0391 41.4142 41.4142C41.0391 41.7893 40.5304 42 40 42C30.9826 42 22.3346 38.4179 15.9584 32.0416C9.58213 25.6654 6 17.0174 6 8C6 7.46957 6.21071 6.96086 6.58579 6.58579C6.96086 6.21071 7.46957 6 8 6H15C15.5304 6 16.0391 6.21071 16.4142 6.58579C16.7893 6.96086 17 7.46957 17 8C17 10.5 17.4 12.9 18.14 15.14C18.36 15.84 18.2 16.62 17.64 17.18L13.24 21.58Z" fill="#FAFAFF"/>
</svg>
